<?xml version="1.0" encoding="utf-8"?>
<!-- Generator: Adobe Illustrator 15.0.0, SVG Export Plug-In . SVG Version: 6.00 Build 0)  -->
<!DOCTYPE svg PUBLIC "-//W3C//DTD SVG 1.1//EN" "http://www.w3.org/Graphics/SVG/1.1/DTD/svg11.dtd">
<svg version="1.1" id="Layer_1" xmlns="http://www.w3.org/2000/svg" xmlns:xlink="http://www.w3.org/1999/xlink" x="0px" y="0px"
	 width="26px" height="26px" viewBox="0 0 26 26" enable-background="new 0 0 26 26" xml:space="preserve">
<rect fill="none" width="26" height="26"/>
<path fill="none" stroke="#000000" stroke-width="1.5342" stroke-linecap="round" stroke-linejoin="round" stroke-miterlimit="10" d="
	M23.5,11.5c0,0,1.672-2.743,1.672-6.5c0-2.324-1.527-4.191-3.836-4.191c-2.119,0-3.836,1.717-3.836,3.836C17.5,5.604,18,8,18,8"/>
<path fill="#000000" d="M21.467,6.207c-0.18-1.494-0.195-1.491-1.668-1.672c-0.249-0.031-0.512-0.06-0.779-0.088
	C19.014,4.514,19,4.577,19,4.645c0,0.315,0.09,0.959,0.202,1.626C19.749,6.651,20.108,7.283,20.108,8
	c0,1.164-0.944,2.108-2.108,2.108S15.892,9.164,15.892,8c0-0.437,0.133-0.842,0.36-1.179C16.123,6.063,16,5.201,16,4.645
	c0-0.146,0.031-0.281,0.043-0.424c-2.168-0.113-4.096-0.105-4.273,0.072L0.623,15.439c-0.686,0.686-0.686,1.799,0,2.484l7.453,7.452
	c0.686,0.687,1.799,0.687,2.484,0.001l11.146-11.147C22.214,13.723,21.772,8.756,21.467,6.207z M15.137,14.744
	c-0.135-0.476-0.418-1.055-0.946-1.582c-0.958-0.963-2.292-1.147-3.723-0.401l2.722,2.722l-0.83,0.83L9.48,13.434
	c-0.246,0.191-0.372,0.286-0.62,0.534c-0.208,0.207-0.274,0.302-0.443,0.512l2.888,2.888l-0.822,0.822L7.73,15.438
	c-0.764,1.379-0.679,2.737,0.375,3.792c0.47,0.469,1.092,0.842,1.582,0.986l-1.01,1.392c-0.453-0.104-1.264-0.52-2.049-1.306
	c-1.698-1.699-1.701-3.986-0.203-6.17l-0.722-0.721l0.822-0.822l0.63,0.63c0.157-0.18,0.207-0.244,0.384-0.422
	c0.271-0.27,0.422-0.385,0.698-0.605l-0.657-0.657l0.83-0.83l0.776,0.775c2.287-1.413,4.631-1.219,6.22,0.37
	c0.776,0.775,1.11,1.533,1.188,1.936L15.137,14.744z"/>
</svg>
