<?xml version="1.0" encoding="iso-8859-1"?>
<!-- Generator: Adobe Illustrator 17.1.0, SVG Export Plug-In . SVG Version: 6.00 Build 0)  -->
<!DOCTYPE svg PUBLIC "-//W3C//DTD SVG 1.1//EN" "http://www.w3.org/Graphics/SVG/1.1/DTD/svg11.dtd">
<svg version="1.1" id="Layer_1" xmlns="http://www.w3.org/2000/svg" xmlns:xlink="http://www.w3.org/1999/xlink" x="0px" y="0px"
	 viewBox="0 0 64 64" style="enable-background:new 0 0 64 64;" xml:space="preserve">
<g>
	<path d="M28.486,59.082c0.805,0.805,1.875,1.248,3.014,1.248s2.208-0.443,3.014-1.248l23.569-23.568
		c1.662-1.662,1.662-4.365,0-6.027L34.514,5.918C33.708,5.113,32.638,4.67,31.5,4.67s-2.208,0.443-3.014,1.248L4.917,29.486
		c-1.662,1.662-1.662,4.365,0,6.027L28.486,59.082z M8.662,29.336L28.336,9.662c0.845-0.846,1.969-1.311,3.164-1.311
		s2.319,0.465,3.164,1.311l19.674,19.674c0.845,0.845,1.311,1.969,1.311,3.164s-0.465,2.319-1.311,3.164L34.664,55.338
		c-0.845,0.846-1.969,1.312-3.164,1.312s-2.319-0.466-3.164-1.312L8.662,35.664c-0.845-0.845-1.311-1.969-1.311-3.164
		S7.816,30.181,8.662,29.336z"/>
	<path d="M29.043,54.631c1.312,1.312,3.602,1.312,4.914,0l19.674-19.674c0.656-0.656,1.018-1.528,1.018-2.457
		s-0.361-1.801-1.018-2.457L33.957,10.369c-0.656-0.656-1.529-1.018-2.457-1.018s-1.801,0.361-2.457,1.018L9.369,30.043
		c-0.656,0.656-1.018,1.528-1.018,2.457s0.361,1.801,1.018,2.457L29.043,54.631z M31.39,17.006L35.429,24H33v9.813
		c1.525-2.341,3.668-3.838,6.47-4.533l-0.159-2.342l7.252,3.555l-6.704,4.504l-0.188-2.774c-3.291,1.038-6.56,4.218-6.56,14.777H33
		h-2.89H30V24h-2.648L31.39,17.006z"/>
</g>
</svg>
