<?xml version="1.0" encoding="utf-8"?>
<!-- Generator: Adobe Illustrator 17.0.0, SVG Export Plug-In . SVG Version: 6.00 Build 0)  -->
<!DOCTYPE svg PUBLIC "-//W3C//DTD SVG 1.1//EN" "http://www.w3.org/Graphics/SVG/1.1/DTD/svg11.dtd">
<svg version="1.1" id="Capa_1" xmlns="http://www.w3.org/2000/svg" xmlns:xlink="http://www.w3.org/1999/xlink" x="0px" y="0px"
	 width="52px" height="52px" viewBox="0 0 52 52" enable-background="new 0 0 52 52" xml:space="preserve">
<g>
	<circle cx="13.072" cy="43.701" r="2.803"/>
	<path d="M13,1h-0.168C7.886,1,4,4.992,4,9.916v32.168C4,51.915,3.876,51,12.833,51H13c8.193,0,9,0.535,9-8.916V9.916
		C22,4.992,17.946,1,13,1z M13.072,49.307c-3.096,0-5.605-2.51-5.605-5.605s2.509-5.604,5.605-5.604c3.095,0,5.605,2.51,5.605,5.604
		C18.677,46.797,16.167,49.307,13.072,49.307z M19,23.411c0,2.485-2.737,4.5-6,4.5c-3.264,0-6-2.015-6-4.5v-14
		c0-2.485,2.736-4.5,6-4.5c3.263,0,6,2.015,6,4.5V23.411z"/>
	<circle cx="40.44" cy="43.135" r="2.803"/>
	<path d="M48.692,39.362L40.745,8.191c-1.217-4.771-6.131-7.638-10.924-6.416l-0.163,0.041c-4.793,1.223-7.572,6.051-6.355,10.822
		L31.25,43.81c2.429,9.526,2.083,8.67,10.762,6.457l0.163-0.041C50.114,48.201,51.028,48.521,48.692,39.362z M29.544,24.975
		l-3.459-13.566C25.471,9,27.624,6.372,30.787,5.565c3.162-0.806,6.312,0.47,6.926,2.878l3.459,13.566
		c0.614,2.408-1.541,5.036-4.702,5.843C33.307,28.658,30.158,27.383,29.544,24.975z M41.826,48.566
		c-3,0.766-6.052-1.047-6.816-4.047c-0.765-2.998,1.047-6.051,4.047-6.815c2.999-0.765,6.051,1.048,6.816,4.046
		C46.637,44.75,44.825,47.802,41.826,48.566z"/>
</g>
</svg>
