<?xml version="1.0" encoding="iso-8859-1"?>
<!-- Generator: Adobe Illustrator 17.0.0, SVG Export Plug-In . SVG Version: 6.00 Build 0)  -->
<!DOCTYPE svg PUBLIC "-//W3C//DTD SVG 1.1//EN" "http://www.w3.org/Graphics/SVG/1.1/DTD/svg11.dtd">
<svg version="1.1" id="Capa_1" xmlns="http://www.w3.org/2000/svg" xmlns:xlink="http://www.w3.org/1999/xlink" x="0px" y="0px"
	 width="64px" height="64px" viewBox="0 0 64 64" style="enable-background:new 0 0 64 64;" xml:space="preserve">
<g>
	<path d="M19.511,33.015c-2.137,0-3.87,1.277-3.87,2.854c0,0.946,0.626,1.781,1.587,2.301v4.951c0,1.262,1.022,2.283,2.283,2.283
		c1.261,0,2.283-1.021,2.283-2.283v-4.951c0.959-0.519,1.585-1.354,1.585-2.301C23.379,34.292,21.646,33.015,19.511,33.015z"/>
	<path d="M44.626,33.015c-2.136,0-3.868,1.277-3.868,2.854c0,0.946,0.626,1.781,1.585,2.301v4.951c0,1.262,1.022,2.283,2.283,2.283
		c1.262,0,2.283-1.021,2.283-2.283v-4.951c0.961-0.519,1.587-1.354,1.587-2.301C48.496,34.292,46.763,33.015,44.626,33.015z"/>
	<path d="M56.243,38.85c-0.408,0-0.788,0.116-1.12,0.305V38.59c0.53-0.033,0.951-0.47,0.951-1.009V12.466
		c0-0.56-0.454-1.016-1.014-1.016H42.058V6.63c0-1.259-1.023-2.283-2.283-2.283h-1.205V4.094c0-0.561-0.454-1.016-1.015-1.016
		H26.266c-0.56,0-1.016,0.455-1.016,1.016v0.253h-1.205c-1.259,0-2.283,1.024-2.283,2.283v4.82H8.76
		c-0.561,0-1.015,0.455-1.015,1.016v25.115c0,0.539,0.421,0.976,0.951,1.009v0.274C8.65,38.86,8.606,38.85,8.56,38.85
		c-1.262,0-2.283,1.022-2.283,2.283v5.581c0,0.93,0.557,1.726,1.353,2.082v4.219c0,0.729,0.44,1.353,1.067,1.627v5.265
		c0,0.56,0.454,1.016,1.016,1.016h44.396c0.56,0,1.015-0.455,1.015-1.016v-5.144c0.09,0.015,0.181,0.027,0.275,0.027
		c0.981,0,1.775-0.795,1.775-1.775v-4.219c0.796-0.356,1.353-1.152,1.353-2.082v-5.581C58.526,39.872,57.505,38.85,56.243,38.85z
		 M24.299,6.884h0.951v0.127c0,0.561,0.455,1.015,1.016,1.015h11.289c0.56,0,1.015-0.454,1.015-1.015V6.884h0.951v4.566H24.299
		V6.884z M28.136,56.735c0,0.56-0.454,1.015-1.014,1.015H12.28c-0.561,0-1.016-0.454-1.016-1.015V37.581
		c0-0.56,0.455-1.015,1.016-1.015h2.691c-0.058-0.228-0.092-0.461-0.092-0.698c0-1.993,2.078-3.615,4.631-3.615
		c2.553,0,4.63,1.622,4.63,3.615c0,0.237-0.034,0.471-0.091,0.698h3.072c0.56,0,1.014,0.455,1.014,1.015V56.735z M52.956,56.735
		c0,0.56-0.454,1.015-1.015,1.015H37.1c-0.56,0-1.014-0.454-1.014-1.015V37.581c0-0.56,0.453-1.015,1.014-1.015h2.987
		c-0.057-0.228-0.091-0.461-0.091-0.698c0-1.993,2.077-3.615,4.63-3.615c2.554,0,4.631,1.622,4.631,3.615
		c0,0.237-0.034,0.471-0.092,0.698h2.776c0.561,0,1.015,0.455,1.015,1.015V56.735z"/>
</g>
</svg>
