<?xml version="1.0" encoding="utf-8"?>
<!-- Generator: Adobe Illustrator 16.0.0, SVG Export Plug-In . SVG Version: 6.00 Build 0)  -->
<!DOCTYPE svg PUBLIC "-//W3C//DTD SVG 1.1//EN" "http://www.w3.org/Graphics/SVG/1.1/DTD/svg11.dtd">
<svg version="1.1" xmlns="http://www.w3.org/2000/svg" xmlns:xlink="http://www.w3.org/1999/xlink" x="0px" y="0px" width="50px"
	 height="50px" viewBox="0 0 50 50" enable-background="new 0 0 50 50" xml:space="preserve">
<g id="Layer_2" display="none">
	
		<rect x="5" y="5" display="inline" fill="none" stroke="#000000" stroke-width="0.25" stroke-linecap="round" stroke-linejoin="round" stroke-miterlimit="10" width="40" height="40"/>
</g>
<g id="Layer_1">
	<g>
		<path d="M46.363,12.271h-9.998c1.373,1.227,2.547,2.665,3.467,4.272h6.531c1.18,0,2.137-0.956,2.137-2.136
			S47.543,12.271,46.363,12.271z"/>
		<path d="M46.363,17.657h-5.954c0.642,1.34,1.116,2.77,1.391,4.272h4.563c1.18,0,2.137-0.956,2.137-2.136
			S47.543,17.657,46.363,17.657z"/>
		<path d="M46.363,6.886H30.548c-0.921,0-1.697,0.584-1.998,1.398c2.365,0.502,4.541,1.504,6.436,2.874h11.378
			c1.18,0,2.137-0.956,2.137-2.136S47.543,6.886,46.363,6.886z"/>
		<path d="M30.548,5.772h15.815c1.18,0,2.137-0.956,2.137-2.136S47.543,1.5,46.363,1.5H30.548c-1.181,0-2.137,0.957-2.137,2.137
			S29.367,5.772,30.548,5.772z"/>
		<path d="M46.363,23.042H41.97c0.074,0.644,0.121,1.295,0.121,1.958c0,0.786-0.072,1.556-0.175,2.314h4.447
			c1.18,0,2.137-0.956,2.137-2.136S47.543,23.042,46.363,23.042z"/>
		<path d="M46.363,28.428h-4.619c-0.308,1.509-0.829,2.937-1.507,4.272h6.126c1.18,0,2.137-0.956,2.137-2.136
			S47.543,28.428,46.363,28.428z"/>
		<path d="M46.363,33.813h-6.748c-0.979,1.616-2.204,3.063-3.644,4.272h10.392c1.18,0,2.137-0.956,2.137-2.136
			S47.543,33.813,46.363,33.813z"/>
		<path d="M3.637,26.958H8.03C7.956,26.314,7.909,25.663,7.909,25c0-0.786,0.072-1.556,0.175-2.314H3.637
			c-1.18,0-2.137,0.956-2.137,2.136S2.457,26.958,3.637,26.958z"/>
		<path d="M3.637,32.344h5.954c-0.641-1.34-1.116-2.77-1.391-4.272H3.637c-1.18,0-2.137,0.956-2.137,2.136
			S2.457,32.344,3.637,32.344z"/>
		<path d="M3.637,21.572h4.619c0.308-1.509,0.829-2.937,1.507-4.272H3.637c-1.18,0-2.137,0.956-2.137,2.136
			S2.457,21.572,3.637,21.572z"/>
		<path d="M3.637,16.187h6.748c0.979-1.616,2.204-3.063,3.644-4.272H3.637c-1.18,0-2.137,0.956-2.137,2.136
			S2.457,16.187,3.637,16.187z"/>
		<path d="M3.637,37.729h9.998c-1.373-1.227-2.547-2.665-3.467-4.272H3.637c-1.18,0-2.137,0.956-2.137,2.136
			S2.457,37.729,3.637,37.729z"/>
		<path d="M3.637,43.114h15.815c0.921,0,1.697-0.584,1.998-1.398c-2.365-0.502-4.541-1.504-6.436-2.874H3.637
			c-1.18,0-2.137,0.956-2.137,2.136S2.457,43.114,3.637,43.114z"/>
		<path d="M19.452,44.228H3.637c-1.18,0-2.137,0.956-2.137,2.136S2.457,48.5,3.637,48.5h15.815c1.181,0,2.137-0.957,2.137-2.137
			S20.633,44.228,19.452,44.228z"/>
		<path d="M25,10.046c-8.246,0-14.954,6.708-14.954,14.954S16.754,39.954,25,39.954S39.954,33.246,39.954,25
			S33.246,10.046,25,10.046z M25,35.682c-5.89,0-10.682-4.792-10.682-10.682S19.11,14.318,25,14.318S35.682,19.11,35.682,25
			S30.89,35.682,25,35.682z"/>
		<path d="M25.623,23.556v-3.692c2.151,0.04,2.134,2.118,3.396,2.118c0.66,0,1.227-0.445,1.227-1.203
			c0-1.904-3.11-2.855-4.623-2.895v-1.035c0-0.331-0.254-0.661-0.586-0.661c-0.328,0-0.579,0.33-0.579,0.661v1.035
			c-2.428,0.075-4.624,1.438-4.624,4.078c0,2.157,1.744,3.42,4.624,3.943v4.061c-3.229-0.136-1.537-2.817-3.713-2.817
			c-0.734,0-1.203,0.449-1.203,1.223c0,1.536,1.633,3.498,4.916,3.578v1.202c0,0.331,0.251,0.661,0.579,0.661
			c0.332,0,0.586-0.33,0.586-0.661v-1.202c2.893-0.175,4.835-1.498,4.835-4.1C30.458,24.858,28.188,24.101,25.623,23.556z
			 M24.458,23.344c-1.457-0.293-2.18-0.855-2.18-1.828c0-0.834,0.855-1.612,2.18-1.652V23.344z M25.623,29.966V26.12
			c1.046,0.232,2.39,0.62,2.39,1.941C28.013,29.342,26.787,29.889,25.623,29.966z"/>
	</g>
</g>
</svg>
