<?xml version="1.0" encoding="iso-8859-1"?>
<!-- Generator: Adobe Illustrator 16.0.4, SVG Export Plug-In . SVG Version: 6.00 Build 0)  -->
<!DOCTYPE svg PUBLIC "-//W3C//DTD SVG 1.1//EN" "http://www.w3.org/Graphics/SVG/1.1/DTD/svg11.dtd">
<svg version="1.1" id="Capa_1" xmlns="http://www.w3.org/2000/svg" xmlns:xlink="http://www.w3.org/1999/xlink" x="0px" y="0px"
	 width="15px" height="13.572px" viewBox="0 0 15 13.572" style="enable-background:new 0 0 15 13.572;" xml:space="preserve">
<path style="fill:#010002;" d="M11.365,8.441l2.996-3.012l0.473,0.468l0,0c0.222,0.223,0.222,0.582,0,0.802l-2.207,2.198
	c-0.22,0.22-0.582,0.22-0.805,0l0,0L11.365,8.441z M0,11.956c0.21,0.775,0.879,1.4,1.612,1.616l5.84-5.788L5.837,6.168L0,11.956z
	 M11.019,7.375c0.024,0.052,0.047,0.102,0.065,0.154c0.015,0.042,0.028,0.082,0.038,0.116c0.02,0.078,0.04,0.152,0.044,0.226
	c0.861-0.855,1.723-1.71,2.584-2.562c0,0-1.637-0.091-2.14-2.143c-0.152-0.153-0.308-0.305-0.46-0.46
	C9.035,0.592,6.803-0.16,4.707,0.028C4.592,0.037,4.361,0.071,4.151,0.101C3.779,0.158,3.745,0.701,4.15,0.706
	C4.34,0.708,4.537,0.71,4.628,0.721c0.384,0.052,0.756,0.091,1.123,0.228c1.565,0.598,2.577,2.296,1.242,3.619
	C6.635,4.92,5.923,5.625,5.923,5.625l2.15,2.112c0,0,0.154-0.185,0.249-0.267c0.43-0.354,1.312-0.934,2.205-0.582
	c0.14,0.054,0.249,0.143,0.336,0.243c0.042,0.052,0.084,0.107,0.119,0.168C10.996,7.325,11.006,7.35,11.019,7.375z"/>
<g>
</g>
<g>
</g>
<g>
</g>
<g>
</g>
<g>
</g>
<g>
</g>
<g>
</g>
<g>
</g>
<g>
</g>
<g>
</g>
<g>
</g>
<g>
</g>
<g>
</g>
<g>
</g>
<g>
</g>
</svg>
